HIERARCHY
ROOT Hips
{
	OFFSET 0.00000 0.00000 0.00000
	CHANNELS 6 Xposition Yposition Zposition Zrotation Yrotation Xrotation 
	JOINT LHipJoint
	{
		OFFSET 0 0 0
		CHANNELS 3 Zrotation Yrotation Xrotation
		JOINT LeftHip
		{
			OFFSET 1.65412 -1.54119 0.76744
			CHANNELS 3 Zrotation Yrotation Xrotation
			JOINT LeftKnee
			{
				OFFSET 2.19550 -6.03209 0.00000
				CHANNELS 3 Zrotation Yrotation Xrotation
				JOINT LeftAnkle
				{
					OFFSET 2.38814 -6.56138 0.00000
					CHANNELS 3 Zrotation Yrotation Xrotation
					JOINT LeftToe
					{
						OFFSET 0.17337 -0.47632 1.75875
						CHANNELS 3 Zrotation Yrotation Xrotation
						End Site
						{
							OFFSET 0.00000 -0.00000 0.92050
						}
					}
				}
			}
		}
	}
	JOINT RHipJoint
	{
		OFFSET 0 0 0
		CHANNELS 3 Zrotation Yrotation Xrotation
		JOINT RightHip
		{
			OFFSET -1.40291 -1.54119 0.76744
			CHANNELS 3 Zrotation Yrotation Xrotation
			JOINT RightKnee
			{
				OFFSET -2.22156 -6.10370 0.00000
				CHANNELS 3 Zrotation Yrotation Xrotation
				JOINT RightAnkle
				{
					OFFSET -2.46840 -6.78188 0.00000
					CHANNELS 3 Zrotation Yrotation Xrotation
					JOINT RightToe
					{
						OFFSET -0.15659 -0.43024 1.84117
						CHANNELS 3 Zrotation Yrotation Xrotation
						End Site
						{
							OFFSET -0.00000 -0.00000 0.95587
						}
					}
				}
			}
		}
	}
	JOINT lowerback
	{
		OFFSET 0 0 0
		CHANNELS 3 Zrotation Yrotation Xrotation
		JOINT Chest
		{
			OFFSET -0.01936 1.82120 -0.32061
			CHANNELS 3 Zrotation Yrotation Xrotation
			JOINT Chest2
			{
				OFFSET -0.00532 1.85767 -0.00071
				CHANNELS 3 Zrotation Yrotation Xrotation
				JOINT lowerneck
				{
					OFFSET 0 0 0
					CHANNELS 3 Zrotation Yrotation Xrotation
					JOINT Neck
					{
						OFFSET -0.10687 1.58194 0.10810
						CHANNELS 3 Zrotation Yrotation Xrotation
						JOINT Head
						{
							OFFSET 0.15346 1.57382 -0.25612
							CHANNELS 3 Zrotation Yrotation Xrotation
							End Site
							{
								OFFSET 0.05334 1.61251 -0.10513
							}
						}
					}
				}
				JOINT LeftCollar
				{
					OFFSET 0 0 0
					CHANNELS 3 Zrotation Yrotation Xrotation
					JOINT LeftShoulder
					{
						OFFSET 2.85758 0.89498 -0.01485
CHANNELS 3 Zrotation Xrotation Yrotation
						JOINT LeftElbow
						{
OFFSET 0 -4.791850 -0.000000
CHANNELS 3 Zrotation Xrotation Yrotation
							JOINT LeftWrist
							{
OFFSET 0 -2.655530 0.000000
CHANNELS 3 Zrotation Xrotation Yrotation
								JOINT lhand
								{
									OFFSET 0 0 0
CHANNELS 3 Zrotation Xrotation Yrotation
									JOINT LFingers
									{
OFFSET 0 -0.743900 0.000000
CHANNELS 3 Zrotation Xrotation Yrotation
										End Site
										{
OFFSET 0 -0.599750 0.000000
										}
									}
								}
								JOINT LThumb
								{
OFFSET 0 0.000000 0.000000
CHANNELS 3 Zrotation Xrotation Yrotation
									End Site
									{
OFFSET 0 -0.608910 0.608910
									}
								}
							}
						}
					}
				}
				JOINT RightCollar
				{
					OFFSET 0 0 0
					CHANNELS 3 Zrotation Yrotation Xrotation
					JOINT RightShoulder
					{
						OFFSET -2.93906 0.88031 0.02490
CHANNELS 3 Zrotation Xrotation Yrotation
						JOINT RightElbow
						{
OFFSET 0 -4.772540 -0.000000
CHANNELS 3 Zrotation Xrotation Yrotation
							JOINT RightWrist
							{
OFFSET 0 -2.759950 -0.000000
CHANNELS 3 Zrotation Xrotation Yrotation
								JOINT rhand
								{
									OFFSET 0 0 0
CHANNELS 3 Zrotation Xrotation Yrotation
									JOINT RFingers
									{
OFFSET 0 -0.701620 0.000000
CHANNELS 3 Zrotation Xrotation Yrotation
										End Site
										{
OFFSET 0 -0.565660 0.000000
										}
									}
								}
								JOINT RThumb
								{
OFFSET 0 0.000000 0.000000
CHANNELS 3 Zrotation Xrotation Yrotation
									End Site
									{
OFFSET 0 -0.574300 0.574300
									}
								}
							}
						}
					}
				}
			}
		}
	}
}
MOTION
Frames: 12
Frame Time: 0.008333333333333333
0.382556 16.148665 0.079744 -0.034380 1.764885 3.095500 0.000000 0.000000 0.000000 -17.605169 -9.845582 3.875453 0.136139 2.377710 6.550691 0.089512 4.452499 -8.977258 0.399823 -4.059390 -11.243806 0.000000 0.000000 0.000000 16.830513 11.598044 1.359177 -0.635791 -5.101442 14.198160 -0.078721 -11.007845 -16.777693 -0.098009 2.018884 -5.557937 -0.665442 1.748239 8.647489 -0.753613 2.194736 -5.955612 -0.840764 1.068991 -11.275325 -3.863733 8.316942 -6.152944 9.691087 10.401944 15.502096 4.210862 5.564707 4.908085 0.000000 0.000000 0.000000 66.204424 -3.100467 62.650750 27.538157 -38.687569 9.833613 -5.005930 -60.613256 -16.831432 0.000000 0.000000 0.000000 -7.125000 0.000000 0.000000 -29.896840 44.522476 -0.388833 0.000000 0.000000 0.000000 -70.886933 8.686591 -61.027088 -24.822339 -36.021824 -8.185171 -7.716655 -48.847593 -9.105371 0.000000 0.000000 0.000000 7.125000 0.000000 0.000000 13.730299 20.896864 8.163303
0.372055 16.145103 0.039387 0.072560 1.865425 2.980280 0.000000 0.000000 0.000000 -17.717399 -10.452510 3.524906 0.172593 2.675938 7.377686 0.094924 4.663771 -9.325545 0.398157 -4.050933 -11.219936 0.000000 0.000000 0.000000 16.750272 11.716277 1.034050 -0.686480 -5.297133 14.758103 -0.079549 -11.060574 -16.857940 -0.106274 2.101394 -5.786059 -0.751531 1.796252 8.939221 -0.832154 2.237496 -5.520007 -0.883311 1.093140 -10.961164 -3.935564 7.594264 -6.138886 9.064289 9.444116 17.304068 4.074131 5.054082 5.562008 0.000000 0.000000 0.000000 60.981883 -1.457673 60.503405 27.358873 -38.519352 9.721792 -4.835303 -60.819564 -17.099912 0.000000 0.000000 0.000000 -7.125000 0.000000 0.000000 -29.880827 44.777457 -0.180961 0.000000 0.000000 0.000000 -65.038797 10.433857 -59.323524 -24.558987 -35.749783 -8.030782 -8.372783 -49.341485 -9.456252 0.000000 0.000000 0.000000 7.125000 0.000000 0.000000 13.242264 20.531811 7.969116
0.368033 16.143597 0.006814 -0.218469 2.081458 2.807630 0.000000 0.000000 0.000000 -17.417682 -11.194184 3.088681 0.232717 3.104560 8.569972 0.111174 4.824143 -9.858119 0.378518 -3.951397 -10.939892 0.000000 0.000000 0.000000 17.116851 11.679498 0.975789 -0.703806 -5.362180 14.944506 -0.053651 -11.286619 -16.811338 -0.095748 1.995848 -5.494152 -0.431890 1.602481 9.233851 -0.806246 2.020862 -5.176873 -0.996113 0.967281 -10.743753 -4.792113 6.285461 -6.180203 9.310179 7.631436 19.579126 4.306733 4.140690 6.357550 0.000000 0.000000 0.000000 55.882494 0.583936 59.126702 26.992388 -38.171965 9.494429 -5.239965 -59.802183 -17.421191 0.000000 0.000000 0.000000 -7.125000 0.000000 0.000000 -30.373910 45.008437 0.006962 0.000000 0.000000 0.000000 -59.203855 11.446647 -57.443904 -23.955346 -35.117008 -7.680849 -8.658866 -48.583100 -9.299931 0.000000 0.000000 0.000000 7.125000 0.000000 0.000000 13.051387 20.676047 7.804305
0.367520 16.137856 -0.022019 0.051752 2.186286 2.802157 0.000000 0.000000 0.000000 -17.729758 -11.715258 2.993677 0.248364 3.206925 8.855301 0.108586 5.097618 -10.086970 0.375586 -3.936259 -10.897290 0.000000 0.000000 0.000000 16.787041 11.601637 0.628074 -0.745084 -5.513892 15.380198 -0.069249 -11.184249 -16.884134 -0.115180 2.187783 -6.025006 -0.781148 1.526705 9.337526 -0.875770 1.864609 -4.658206 -0.836275 0.916046 -10.239166 -6.277862 4.136550 -6.260449 9.626455 4.772953 20.183319 4.529262 2.675232 6.726762 0.000000 0.000000 0.000000 50.718784 2.603007 58.122378 26.011262 -37.219859 8.894471 -7.728653 -58.998972 -17.144901 0.000000 0.000000 0.000000 -7.125000 0.000000 0.000000 -32.304270 44.466957 -0.477532 0.000000 0.000000 0.000000 -53.745358 12.618644 -55.476616 -22.856045 -33.930778 -7.057821 -8.487312 -46.153267 -9.287171 0.000000 0.000000 0.000000 7.125000 0.000000 0.000000 13.173276 20.694216 7.875626
0.360591 16.140673 -0.050646 -0.342472 2.321816 2.738960 0.000000 0.000000 0.000000 -17.261823 -12.300209 2.517409 0.304698 3.549080 9.811316 0.121174 5.189284 -10.446637 0.374849 -3.932238 -10.886121 0.000000 0.000000 0.000000 17.303808 11.844378 0.682551 -0.741702 -5.501578 15.344807 -0.023477 -11.656524 -16.909637 -0.115015 2.186371 -6.021032 -0.685142 1.396874 9.596247 -0.706588 1.718562 -4.102663 -0.677506 0.846816 -9.781422 -7.247270 2.200422 -6.046205 9.622932 2.233964 19.445378 4.507436 1.369126 6.660048 0.000000 0.000000 0.000000 45.177409 4.977058 56.882444 25.893732 -37.103496 8.823491 -6.171421 -58.857591 -18.138901 0.000000 0.000000 0.000000 -7.125000 0.000000 0.000000 -31.509269 45.513451 0.446034 0.000000 0.000000 0.000000 -48.479241 13.081312 -54.566417 -21.703159 -32.639794 -6.425042 -7.989978 -43.450801 -9.469054 0.000000 0.000000 0.000000 7.125000 0.000000 0.000000 13.510816 20.531810 8.140050
0.366292 16.141615 -0.072584 0.011296 2.428257 2.706395 0.000000 0.000000 0.000000 -17.671818 -12.269858 2.682622 0.279628 3.401027 9.397422 0.102520 5.278652 -10.149177 0.333641 -3.711934 -10.267576 0.000000 0.000000 0.000000 16.873676 11.756090 0.383782 -0.785960 -5.659479 15.799473 -0.044017 -11.527457 -17.008553 -0.112385 2.160940 -5.950614 -1.176557 1.313616 10.039525 -0.743664 1.530438 -3.818632 -0.413148 0.784399 -9.744515 -8.653842 0.414750 -5.527320 10.297583 -0.191043 18.874061 4.790766 0.137262 6.603791 0.000000 0.000000 0.000000 39.680274 7.447344 55.014210 25.714599 -36.925517 8.715640 -2.968999 -58.891085 -16.020694 0.000000 0.000000 0.000000 -7.125000 0.000000 0.000000 -27.820639 44.046694 -0.713039 0.000000 0.000000 0.000000 -43.503439 13.853486 -53.542597 -20.714617 -31.493577 -5.900198 -7.560298 -40.751616 -9.349945 0.000000 0.000000 0.000000 7.125000 0.000000 0.000000 13.821928 20.662010 8.296765
0.371148 16.146112 -0.077000 -0.332546 2.477855 2.939128 0.000000 0.000000 0.000000 -17.221158 -12.327551 2.130291 0.304898 3.550020 9.813974 0.118367 5.054943 -10.248470 0.389330 -4.006621 -11.095324 0.000000 0.000000 0.000000 17.223997 11.904064 0.457575 -0.733767 -5.472677 15.261842 0.009498 -11.921312 -16.832189 -0.138066 2.394725 -6.597878 -0.949157 1.239544 9.943627 -0.640636 1.474624 -3.683043 -0.415620 0.747313 -9.534976 -10.636962 -1.465448 -4.308989 11.748525 -2.835874 17.506369 5.398822 -1.206204 6.266392 0.000000 0.000000 0.000000 35.213633 8.817260 55.523015 25.029173 -36.233733 8.307154 -3.873236 -57.529352 -15.438622 0.000000 0.000000 0.000000 -7.125000 0.000000 0.000000 -28.322641 43.428831 -1.202073 0.000000 0.000000 0.000000 -38.445876 14.911192 -51.928345 -20.639948 -31.405613 -5.861157 -7.516556 -40.277767 -9.381783 0.000000 0.000000 0.000000 7.125000 0.000000 0.000000 13.850210 20.632222 8.324385
0.382678 16.152947 -0.078533 0.115747 2.427761 3.255815 0.000000 0.000000 0.000000 -17.706729 -12.235531 2.398278 0.239733 3.150613 8.698467 0.079418 5.371614 -9.742797 0.371804 -3.916176 -10.841098 0.000000 0.000000 0.000000 16.576958 11.931156 -0.038683 -0.758451 -5.562046 15.518898 -0.034089 -11.584490 -16.952960 -0.126085 2.288662 -6.304028 -1.367796 1.284373 9.794559 -0.847008 1.461762 -3.653307 -0.393715 0.759227 -9.420854 -11.730075 -3.414839 -2.404399 12.250448 -5.558236 15.652010 5.542557 -2.631155 5.729372 0.000000 0.000000 0.000000 31.191991 9.902747 55.686409 25.279657 -36.488443 8.455625 -4.417922 -56.586308 -15.746424 0.000000 0.000000 0.000000 -7.125000 0.000000 0.000000 -28.910884 43.639175 -1.066252 0.000000 0.000000 0.000000 -33.785004 15.904383 -50.112344 -20.817153 -31.614323 -5.953783 -7.702048 -39.658738 -9.888145 0.000000 0.000000 0.000000 7.125000 0.000000 0.000000 13.683010 20.130479 8.377343
0.396253 16.156000 -0.084849 0.133897 2.480979 3.467833 0.000000 0.000000 0.000000 -17.723178 -12.278719 2.375232 0.218649 3.010290 8.307374 0.074250 5.364488 -9.617096 0.382989 -3.974143 -11.003990 0.000000 0.000000 0.000000 16.456028 11.969414 -0.207219 -0.744149 -5.510547 15.370591 -0.004253 -11.777905 -16.818225 -0.139148 2.404179 -6.624141 -1.362249 1.111658 9.763057 -0.780315 1.238947 -3.507417 -0.282659 0.652954 -9.242520 -12.687557 -4.836491 -1.701587 12.543827 -7.475583 14.442457 5.658938 -3.631896 5.532072 0.000000 0.000000 0.000000 27.342266 11.193888 55.251146 25.489158 -36.699808 8.580575 -7.777220 -57.601087 -18.502594 0.000000 0.000000 0.000000 -7.125000 0.000000 0.000000 -33.036771 45.621333 0.571725 0.000000 0.000000 0.000000 -30.352110 16.536425 -47.386461 -20.861035 -31.665741 -5.976818 -7.157468 -38.929018 -10.135250 0.000000 0.000000 0.000000 7.125000 0.000000 0.000000 14.045849 19.906949 8.686083
0.404988 16.157979 -0.090842 0.120644 2.292460 3.480104 0.000000 0.000000 0.000000 -17.718828 -12.047666 2.417699 0.206391 2.925113 8.070352 0.069185 5.356108 -9.490385 0.357075 -3.838959 -10.624001 0.000000 0.000000 0.000000 16.451463 12.276971 -0.197240 -0.748603 -5.526603 15.416804 -0.003931 -11.847915 -16.912061 -0.125828 2.286482 -6.298021 -1.354479 1.064261 9.860350 -0.687639 1.185548 -3.215812 -0.176063 0.628427 -8.982603 -13.257234 -5.775221 -1.691769 12.766359 -8.699881 13.624048 5.723205 -4.250638 5.482035 0.000000 0.000000 0.000000 24.206117 11.698542 54.541847 25.251481 -36.459918 8.438858 -7.249270 -56.791323 -17.029688 0.000000 0.000000 0.000000 -7.125000 0.000000 0.000000 -31.853671 44.425670 -0.504990 0.000000 0.000000 0.000000 -27.596463 16.731401 -45.487160 -20.539666 -31.287069 -5.809005 -6.882755 -37.735381 -10.404169 0.000000 0.000000 0.000000 7.125000 0.000000 0.000000 14.217508 19.653517 8.882649
0.419338 16.158926 -0.100443 0.196953 2.265222 3.579067 0.000000 0.000000 0.000000 -17.832853 -12.051937 2.296301 0.203501 2.904599 8.013350 0.066709 5.362864 -9.439595 0.357423 -3.840797 -10.629173 0.000000 0.000000 0.000000 16.259788 12.338547 -0.406131 -0.758928 -5.563696 15.523484 -0.017506 -11.743580 -16.950051 -0.119536 2.228652 -6.137965 -1.225318 1.017308 10.200356 -0.679858 1.134371 -3.226098 -0.238431 0.596509 -9.189650 -13.944514 -6.402960 -1.500714 13.091110 -9.559035 13.226929 5.874962 -4.695473 5.497395 0.000000 0.000000 0.000000 21.616455 12.155768 53.408739 24.771657 -35.969757 8.155434 -6.390758 -55.726438 -15.042946 0.000000 0.000000 0.000000 -7.125000 0.000000 0.000000 -30.222679 42.802386 -1.821813 0.000000 0.000000 0.000000 -25.144628 17.116984 -44.102377 -20.081514 -30.740477 -5.572928 -6.882512 -37.121012 -10.570563 0.000000 0.000000 0.000000 7.125000 0.000000 0.000000 14.205653 19.491165 8.928101
0.427621 16.158341 -0.109104 0.106286 2.192166 3.562931 0.000000 0.000000 0.000000 -17.753916 -12.026129 2.101378 0.219434 3.015659 8.322416 0.077931 5.245034 -9.566103 0.341012 -3.752339 -10.380940 0.000000 0.000000 0.000000 16.340874 12.424967 -0.398393 -0.757456 -5.558309 15.508151 0.003734 -11.869667 -16.838318 -0.135633 2.373094 -6.537900 -1.184035 0.966212 10.412643 -0.487312 1.086635 -3.004126 -0.048507 0.576289 -9.074225 -14.166978 -6.853134 -1.382147 12.937638 -10.098420 12.542259 5.813314 -4.982865 5.351153 0.000000 0.000000 0.000000 19.119013 12.685294 50.901590 24.447266 -35.633583 7.965670 -3.646421 -55.009244 -14.883657 0.000000 0.000000 0.000000 -7.125000 0.000000 0.000000 -27.896516 42.962212 -1.532850 0.000000 0.000000 0.000000 -23.160210 17.085486 -42.166881 -19.696272 -30.274687 -5.377363 -7.011922 -36.349583 -10.953714 0.000000 0.000000 0.000000 7.125000 0.000000 0.000000 14.089004 19.112551 8.973231
